solid OpenSCAD_Model
  facet normal 0 1 -0
    outer loop
      vertex 13 0 10
      vertex 8 0 40
      vertex 13 0 40
    endloop
  endfacet
  facet normal 0 1 0
    outer loop
      vertex 13 0 10
      vertex 0 0 10
      vertex 8 0 40
    endloop
  endfacet
  facet normal 0 1 -0
    outer loop
      vertex 13 0 0
      vertex 0 0 10
      vertex 13 0 10
    endloop
  endfacet
  facet normal 0 1 0
    outer loop
      vertex 0 0 10
      vertex 13 0 0
      vertex 0 0 0
    endloop
  endfacet
  facet normal 0 1 0
    outer loop
      vertex 28 0 10
      vertex 33 0 40
      vertex 40 0 10
    endloop
  endfacet
  facet normal 0 1 0
    outer loop
      vertex 33 0 40
      vertex 28 0 10
      vertex 28 0 40
    endloop
  endfacet
  facet normal 0 1 -0
    outer loop
      vertex 40 0 0
      vertex 28 0 10
      vertex 40 0 10
    endloop
  endfacet
  facet normal 0 1 0
    outer loop
      vertex 28 0 10
      vertex 40 0 0
      vertex 28 0 0
    endloop
  endfacet
  facet normal 0 -1 0
    outer loop
      vertex 13 -10 10
      vertex 8 -10 40
      vertex 0 -10 10
    endloop
  endfacet
  facet normal 0 -1 0
    outer loop
      vertex 8 -10 40
      vertex 13 -10 10
      vertex 13 -10 40
    endloop
  endfacet
  facet normal 0 -1 0
    outer loop
      vertex 0 -10 0
      vertex 13 -10 10
      vertex 0 -10 10
    endloop
  endfacet
  facet normal 0 -1 0
    outer loop
      vertex 40 -10 0
      vertex 13 -10 10
      vertex 0 -10 0
    endloop
  endfacet
  facet normal 0 -1 0
    outer loop
      vertex 13 -10 10
      vertex 40 -10 0
      vertex 28 -10 10
    endloop
  endfacet
  facet normal 0 -1 0
    outer loop
      vertex 28 -10 10
      vertex 40 -10 0
      vertex 40 -10 10
    endloop
  endfacet
  facet normal 0 -1 0
    outer loop
      vertex 28 -10 10
      vertex 33 -10 40
      vertex 28 -10 40
    endloop
  endfacet
  facet normal 0 -1 -0
    outer loop
      vertex 33 -10 40
      vertex 28 -10 10
      vertex 40 -10 10
    endloop
  endfacet
  facet normal 0.973841 -0 0.22723
    outer loop
      vertex 33 -10 40
      vertex 40 0 10
      vertex 33 0 40
    endloop
  endfacet
  facet normal 0.973841 0 0.22723
    outer loop
      vertex 40 0 10
      vertex 33 -10 40
      vertex 40 -10 10
    endloop
  endfacet
  facet normal -0 0 1
    outer loop
      vertex 28 0 40
      vertex 33 -10 40
      vertex 33 0 40
    endloop
  endfacet
  facet normal 0 0 1
    outer loop
      vertex 33 -10 40
      vertex 28 0 40
      vertex 28 -10 40
    endloop
  endfacet
  facet normal -1 0 0
    outer loop
      vertex 28 -10 10
      vertex 28 0 40
      vertex 28 0 10
    endloop
  endfacet
  facet normal -1 -0 0
    outer loop
      vertex 28 0 40
      vertex 28 -10 10
      vertex 28 -10 40
    endloop
  endfacet
  facet normal 0 0 1
    outer loop
      vertex 13 90 10
      vertex 28 90 10
      vertex 28 100 10
    endloop
  endfacet
  facet normal 0 0 1
    outer loop
      vertex 28 90 10
      vertex 13 90 10
      vertex 28 0 10
    endloop
  endfacet
  facet normal 0 0 1
    outer loop
      vertex 13 90 10
      vertex 28 100 10
      vertex 13 100 10
    endloop
  endfacet
  facet normal 0 0 1
    outer loop
      vertex 13 0 10
      vertex 28 0 10
      vertex 13 90 10
    endloop
  endfacet
  facet normal 0 0 1
    outer loop
      vertex 28 0 10
      vertex 13 0 10
      vertex 28 -10 10
    endloop
  endfacet
  facet normal 0 0 1
    outer loop
      vertex 28 -10 10
      vertex 13 0 10
      vertex 13 -10 10
    endloop
  endfacet
  facet normal 1 -0 0
    outer loop
      vertex 13 -10 40
      vertex 13 0 10
      vertex 13 0 40
    endloop
  endfacet
  facet normal 1 0 0
    outer loop
      vertex 13 0 10
      vertex 13 -10 40
      vertex 13 -10 10
    endloop
  endfacet
  facet normal -0 0 1
    outer loop
      vertex 8 0 40
      vertex 13 -10 40
      vertex 13 0 40
    endloop
  endfacet
  facet normal 0 0 1
    outer loop
      vertex 13 -10 40
      vertex 8 0 40
      vertex 8 -10 40
    endloop
  endfacet
  facet normal -0.966235 0 0.257663
    outer loop
      vertex 0 -10 10
      vertex 8 0 40
      vertex 0 0 10
    endloop
  endfacet
  facet normal -0.966235 0 0.257663
    outer loop
      vertex 8 0 40
      vertex 0 -10 10
      vertex 8 -10 40
    endloop
  endfacet
  facet normal -1 0 0
    outer loop
      vertex 0 -10 0
      vertex 0 0 10
      vertex 0 0 0
    endloop
  endfacet
  facet normal -1 -0 0
    outer loop
      vertex 0 0 10
      vertex 0 -10 0
      vertex 0 -10 10
    endloop
  endfacet
  facet normal 0 0 -1
    outer loop
      vertex 40 -10 0
      vertex 28 0 0
      vertex 40 0 0
    endloop
  endfacet
  facet normal 0 0 -1
    outer loop
      vertex 28 0 0
      vertex 13 0 0
      vertex 28 90 0
    endloop
  endfacet
  facet normal 0 0 -1
    outer loop
      vertex 40 -10 0
      vertex 13 0 0
      vertex 28 0 0
    endloop
  endfacet
  facet normal 0 0 -1
    outer loop
      vertex 0 -10 0
      vertex 13 0 0
      vertex 40 -10 0
    endloop
  endfacet
  facet normal -0 0 -1
    outer loop
      vertex 13 0 0
      vertex 0 -10 0
      vertex 0 0 0
    endloop
  endfacet
  facet normal 0 0 -1
    outer loop
      vertex 28 90 0
      vertex 40 100 0
      vertex 40 90 0
    endloop
  endfacet
  facet normal 0 0 -1
    outer loop
      vertex 13 90 0
      vertex 28 90 0
      vertex 13 0 0
    endloop
  endfacet
  facet normal 0 0 -1
    outer loop
      vertex 13 90 0
      vertex 40 100 0
      vertex 28 90 0
    endloop
  endfacet
  facet normal 0 0 -1
    outer loop
      vertex 0 100 0
      vertex 13 90 0
      vertex 0 90 0
    endloop
  endfacet
  facet normal 0 0 -1
    outer loop
      vertex 13 90 0
      vertex 0 100 0
      vertex 40 100 0
    endloop
  endfacet
  facet normal 1 -0 0
    outer loop
      vertex 40 -10 10
      vertex 40 0 0
      vertex 40 0 10
    endloop
  endfacet
  facet normal 1 0 0
    outer loop
      vertex 40 0 0
      vertex 40 -10 10
      vertex 40 -10 0
    endloop
  endfacet
  facet normal 0 1 0
    outer loop
      vertex 28 100 10
      vertex 33 100 40
      vertex 40 100 10
    endloop
  endfacet
  facet normal 0 1 0
    outer loop
      vertex 33 100 40
      vertex 28 100 10
      vertex 28 100 40
    endloop
  endfacet
  facet normal 0 1 -0
    outer loop
      vertex 40 100 0
      vertex 28 100 10
      vertex 40 100 10
    endloop
  endfacet
  facet normal 0 1 0
    outer loop
      vertex 28 100 10
      vertex 40 100 0
      vertex 13 100 10
    endloop
  endfacet
  facet normal 0 1 0
    outer loop
      vertex 0 100 0
      vertex 13 100 10
      vertex 40 100 0
    endloop
  endfacet
  facet normal 0 1 0
    outer loop
      vertex 13 100 10
      vertex 0 100 0
      vertex 0 100 10
    endloop
  endfacet
  facet normal 0 1 -0
    outer loop
      vertex 13 100 10
      vertex 8 100 40
      vertex 13 100 40
    endloop
  endfacet
  facet normal 0 1 0
    outer loop
      vertex 8 100 40
      vertex 13 100 10
      vertex 0 100 10
    endloop
  endfacet
  facet normal 0 -1 0
    outer loop
      vertex 28 90 10
      vertex 33 90 40
      vertex 28 90 40
    endloop
  endfacet
  facet normal 0 -1 0
    outer loop
      vertex 28 90 10
      vertex 40 90 10
      vertex 33 90 40
    endloop
  endfacet
  facet normal 0 -1 0
    outer loop
      vertex 28 90 0
      vertex 40 90 10
      vertex 28 90 10
    endloop
  endfacet
  facet normal 0 -1 -0
    outer loop
      vertex 40 90 10
      vertex 28 90 0
      vertex 40 90 0
    endloop
  endfacet
  facet normal 0 -1 0
    outer loop
      vertex 13 90 10
      vertex 8 90 40
      vertex 0 90 10
    endloop
  endfacet
  facet normal 0 -1 0
    outer loop
      vertex 8 90 40
      vertex 13 90 10
      vertex 13 90 40
    endloop
  endfacet
  facet normal 0 -1 0
    outer loop
      vertex 0 90 0
      vertex 13 90 10
      vertex 0 90 10
    endloop
  endfacet
  facet normal 0 -1 -0
    outer loop
      vertex 13 90 10
      vertex 0 90 0
      vertex 13 90 0
    endloop
  endfacet
  facet normal 0.973841 -0 0.22723
    outer loop
      vertex 33 90 40
      vertex 40 100 10
      vertex 33 100 40
    endloop
  endfacet
  facet normal 0.973841 0 0.22723
    outer loop
      vertex 40 100 10
      vertex 33 90 40
      vertex 40 90 10
    endloop
  endfacet
  facet normal -0 0 1
    outer loop
      vertex 28 100 40
      vertex 33 90 40
      vertex 33 100 40
    endloop
  endfacet
  facet normal 0 0 1
    outer loop
      vertex 33 90 40
      vertex 28 100 40
      vertex 28 90 40
    endloop
  endfacet
  facet normal -1 0 0
    outer loop
      vertex 28 90 10
      vertex 28 100 40
      vertex 28 100 10
    endloop
  endfacet
  facet normal -1 -0 0
    outer loop
      vertex 28 100 40
      vertex 28 90 10
      vertex 28 90 40
    endloop
  endfacet
  facet normal 1 -0 0
    outer loop
      vertex 13 90 40
      vertex 13 100 10
      vertex 13 100 40
    endloop
  endfacet
  facet normal 1 0 0
    outer loop
      vertex 13 100 10
      vertex 13 90 40
      vertex 13 90 10
    endloop
  endfacet
  facet normal -0 0 1
    outer loop
      vertex 8 100 40
      vertex 13 90 40
      vertex 13 100 40
    endloop
  endfacet
  facet normal 0 0 1
    outer loop
      vertex 13 90 40
      vertex 8 100 40
      vertex 8 90 40
    endloop
  endfacet
  facet normal -0.966235 0 0.257663
    outer loop
      vertex 0 90 10
      vertex 8 100 40
      vertex 0 100 10
    endloop
  endfacet
  facet normal -0.966235 0 0.257663
    outer loop
      vertex 8 100 40
      vertex 0 90 10
      vertex 8 90 40
    endloop
  endfacet
  facet normal -1 0 0
    outer loop
      vertex 0 90 0
      vertex 0 100 10
      vertex 0 100 0
    endloop
  endfacet
  facet normal -1 -0 0
    outer loop
      vertex 0 100 10
      vertex 0 90 0
      vertex 0 90 10
    endloop
  endfacet
  facet normal 1 -0 0
    outer loop
      vertex 40 90 10
      vertex 40 100 0
      vertex 40 100 10
    endloop
  endfacet
  facet normal 1 0 0
    outer loop
      vertex 40 100 0
      vertex 40 90 10
      vertex 40 90 0
    endloop
  endfacet
  facet normal 1 -0 0
    outer loop
      vertex 28 0 10
      vertex 28 90 0
      vertex 28 90 10
    endloop
  endfacet
  facet normal 1 0 0
    outer loop
      vertex 28 90 0
      vertex 28 0 10
      vertex 28 0 0
    endloop
  endfacet
  facet normal -1 0 0
    outer loop
      vertex 13 0 0
      vertex 13 90 10
      vertex 13 90 0
    endloop
  endfacet
  facet normal -1 -0 0
    outer loop
      vertex 13 90 10
      vertex 13 0 0
      vertex 13 0 10
    endloop
  endfacet
endsolid OpenSCAD_Model
